<svg width="59" height="52" viewBox="0 0 59 52" fill="none" xmlns="http://www.w3.org/2000/svg">
<path d="M35.4562 13.1893C33.6313 12.8012 33.3706 13.7069 34.1527 15.5185C38.324 24.5765 34.6741 33.5052 30.6332 35.7049C30.5028 35.4461 30.5028 35.058 30.5028 34.7992C29.9814 30.5289 28.4172 26.7764 27.244 26.7764C26.3315 26.7764 26.8529 30.5289 26.7226 33.764C25.2887 32.8581 24.3762 32.3405 22.812 32.5993C20.596 32.9876 17.5978 37.646 17.4675 36.9989C16.5551 31.5641 18.6407 23.1532 21.6388 22.2473C22.1602 22.118 22.9424 22.7649 24.6369 23.412C26.0708 23.9296 25.9405 22.5061 25.2887 21.9885C23.2031 20.4357 20.4657 20.3064 18.1193 21.4709C13.6873 23.6708 11.732 33.3757 14.0784 37.3872C14.9908 39.0693 16.6854 40.1045 18.5104 40.4928C21.5085 40.8809 22.4209 40.234 24.7673 37.2577C25.1584 37.5165 25.5494 37.7753 25.9405 37.7753C23.9852 43.8572 16.6854 48.9037 15.1211 47.998C7.43036 42.822 9.516 26.2588 14.9908 11.766C16.0337 9.17796 16.8158 6.46055 17.5978 3.74315C18.38 -0.138844 13.4266 -0.915247 10.0374 1.93155C7.56071 4.00195 5.21436 8.78972 3.25907 14.4833C-2.86752 32.47 -0.260461 47.6097 10.8196 50.8448C23.5941 54.5973 29.7207 46.704 30.6332 38.8105C31.4153 38.94 32.1974 38.94 32.9795 38.94C36.8901 38.8105 42.4953 36.8696 44.1899 28.3292C45.4934 21.8592 41.1917 14.354 35.4562 13.1893Z" fill="white"/>
<path d="M57.8975 1.71973V50.5197" stroke="white" stroke-width="2"/>
</svg>
