<svg width="25" height="25" viewBox="0 0 25 25" fill="none" xmlns="http://www.w3.org/2000/svg">
<path d="M12.2288 8.52979C14.3288 8.52979 16.3372 8.95062 18.2538 9.79229C20.1705 10.634 21.8122 11.8548 23.1788 13.4548C23.3122 13.6215 23.383 13.8048 23.3913 14.0048C23.3997 14.2048 23.3288 14.3798 23.1788 14.5298L20.8288 16.8798C20.6955 17.0131 20.5038 17.0881 20.2538 17.1048C20.0038 17.1215 19.8038 17.0715 19.6538 16.9548L16.8038 14.8298C16.7038 14.7465 16.6288 14.6548 16.5788 14.5548C16.5288 14.4548 16.5038 14.3465 16.5038 14.2298V10.7548C15.8038 10.4881 15.0913 10.3006 14.3663 10.1923C13.6413 10.084 12.9288 10.0298 12.2288 10.0298C11.5288 10.0298 10.8163 10.084 10.0913 10.1923C9.36633 10.3006 8.65383 10.4881 7.95383 10.7548V14.2298C7.95383 14.3465 7.92883 14.4548 7.87883 14.5548C7.82883 14.6548 7.75383 14.7465 7.65383 14.8298L4.80383 16.9548C4.60383 17.1048 4.39967 17.1715 4.19133 17.1548C3.983 17.1381 3.7955 17.0465 3.62883 16.8798L1.27883 14.5298C1.12883 14.3798 1.058 14.2048 1.06633 14.0048C1.07467 13.8048 1.1455 13.6215 1.27883 13.4548C2.6455 11.8548 4.28717 10.634 6.20383 9.79229C8.1205 8.95062 10.1288 8.52979 12.2288 8.52979Z" fill="white"/>
</svg>
