<svg width="27" height="27" viewBox="0 0 27 27" fill="none" xmlns="http://www.w3.org/2000/svg">
<path d="M21.8941 23.4331C19.7667 23.4331 17.598 22.9195 15.3881 21.8925C13.1782 20.8655 11.1287 19.4075 9.23974 17.5185C7.35075 15.6295 5.89275 13.5801 4.86573 11.3701C3.83871 9.16022 3.3252 6.99155 3.3252 4.86415C3.3252 4.51569 3.4444 4.22226 3.68282 3.98384C3.92123 3.74543 4.21467 3.62622 4.56312 3.62622H8.41445C8.67121 3.62622 8.89128 3.71792 9.07468 3.90132C9.25808 4.08471 9.38646 4.31396 9.45981 4.58905L10.2026 8.05525C10.2393 8.31201 10.2347 8.54584 10.1888 8.75674C10.143 8.96765 10.0467 9.14646 9.89997 9.29318L7.14902 12.0716C7.62585 12.8786 8.13019 13.6305 8.66204 14.3274C9.19389 15.0243 9.78076 15.6846 10.4226 16.3081C11.1012 17.005 11.8165 17.6423 12.5684 18.22C13.3203 18.7977 14.1089 19.3066 14.9342 19.7468L17.5476 17.0509C17.731 16.8491 17.9419 16.7116 18.1803 16.6382C18.4187 16.5649 18.6572 16.5465 18.8956 16.5832L22.1692 17.2984C22.4443 17.3718 22.6735 17.5185 22.8569 17.7386C23.0403 17.9587 23.132 18.2063 23.132 18.4814V22.1951C23.132 22.5436 23.0128 22.837 22.7744 23.0754C22.536 23.3139 22.2426 23.4331 21.8941 23.4331Z" fill="white"/>
</svg>
